<?xml version="1.0"?>
<svg xmlns="http://www.w3.org/2000/svg" viewBox="0 0 64 72" width="72" height="72">
  <title>Soldier insignia</title>
  <defs>
    <linearGradient id="shield-bg-soldier" x1="0" y1="0" x2="0" y2="1">
      <stop offset="0%" stop-color="#1a1610"></stop>
      <stop offset="100%" stop-color="#08090d"></stop>
    </linearGradient>
  </defs>
  
  <path d="M8 6 L56 6 L56 36 Q56 56 32 66 Q8 56 8 36 Z" fill="#6a4a1a"></path>
  
  <path d="M11 9 L53 9 L53 36 Q53 54 32 62.5 Q11 54 11 36 Z" fill="url(#shield-bg-soldier)"></path>
  
  <path d="M13 11 L51 11 L51 36 Q51 53 32 60 Q13 53 13 36 Z" fill="none" stroke="#6a4a1a" stroke-width="0.6" opacity="0.55"></path>
  
  <g color="#c8a96e"><g stroke="currentColor" stroke-width="2.2" stroke-linecap="round" fill="none">
      
      <line x1="20" y1="20" x2="44" y2="48"></line>
      <line x1="44" y1="20" x2="20" y2="48"></line>
      
      <line x1="16" y1="22" x2="24" y2="18" stroke-width="3"></line>
      <line x1="48" y1="22" x2="40" y2="18" stroke-width="3"></line>
      
      <circle cx="20" cy="20" r="1.6" fill="currentColor"></circle>
      <circle cx="44" cy="20" r="1.6" fill="currentColor"></circle>
    </g></g>
</svg>